# xmcd
#
# Track frame offsets: 
#        150
#        16217
#        34065
#        50227
#        68493
#        84994
#        97053
#        111920
#        127140
#        140469
#        156010
#        174986
#        191494
#        205419
#        223554
#
# Disc length: 3188 seconds
#
# Revision: 0
# Processed by: cddbd v1.5.2PL0 Copyright (c) Steve Scherf et al.
# Submitted via: ExactAudioCopy v1.3
#
DISCID=d40c720f
DTITLE=Various Artist - 昭和 永遠の名曲大全集 1946-1963 Disc 14COCP-40151-4
DYEAR=1900
DGENRE=JPop
TTITLE0=美空ひばり - 哀愁波止場
TTITLE1=小林旭 - さすらい
TTITLE2=五月みどり - おひまなら来てね
TTITLE3=こまどり姉妹 - ソーラン渡り鳥
TTITLE4=スリー・グレイセス - 山のロザリア
TTITLE5=小林旭 - 北帰行
TTITLE6=村田英雄 - 王将
TTITLE7=北原謙二 - 若いふたり
TTITLE8=畠山みどり - 恋は神代の昔から
TTITLE9=北島三郎 - なみだ船
TTITLE10=美空ひばり - ひばりの佐渡情話
TTITLE11=畠山みどり - 出世街道
TTITLE12=舟木一夫 - 高校三年生
TTITLE13=島倉千代子 守屋浩 - 星空に両手を
TTITLE14=舟木一夫 - 学園広場
EXTD=
EXTT0=
EXTT1=
EXTT2=
EXTT3=
EXTT4=
EXTT5=
EXTT6=
EXTT7=
EXTT8=
EXTT9=
EXTT10=
EXTT11=
EXTT12=
EXTT13=
EXTT14=
PLAYORDER=
